# xmcd CD database file
#
# Track frame offsets:
#	150
#	18499
#	38412
#	58262
#	80831
#	103084
#	120369
#	139124
#	153274
#	167410
#	182279
#	206856
#	223179
#	248391
#	265845
#
# Disc length: 3934 seconds
#
# Revision: 0
# Processed by: cddbd v1.5.2PL0 Copyright (c) Steve Scherf et al.
# Submitted via: CDex 1.70beta2
#
DISCID=c50f5c0f
DTITLE=Dr Jazz Companie Lübeck - Favourites
DYEAR=1900
DGENRE=Jazz
TTITLE0=Shine
TTITLE1=Panama Rag
TTITLE2=White Cliffs Of Dover
TTITLE3=As Time Goes Bye
TTITLE4=Big Butter And Eggman
TTITLE5=Chimes Blues
TTITLE6=How Can You Leave Me
TTITLE7=South Rampart Street Parade
TTITLE8=Petite Fleur
TTITLE9=Oh Monah
TTITLE10=Immigration Blues
TTITLE11=If I Had A Talking Picture Of You
TTITLE12=Breeze
TTITLE13=Isle Of Capri
TTITLE14=In The Mood
EXTD=
EXTT0=
EXTT1=
EXTT2=
EXTT3=
EXTT4=
EXTT5=
EXTT6=
EXTT7=
EXTT8=
EXTT9=
EXTT10=
EXTT11=
EXTT12=
EXTT13=
EXTT14=
PLAYORDER=
